<svg xmlns="http://www.w3.org/2000/svg" width="1em" height="1em" viewBox="0 0 24 24"><path fill="currentColor" d="M3.616 20q-.691 0-1.153-.462T2 18.384V6.616q0-.691.463-1.153T3.616 5h16.769q.69 0 1.153.463T22 6.616v11.769q0 .69-.462 1.153T20.385 20zm0-1h16.769q.23 0 .423-.192t.192-.424V6.616q0-.231-.192-.424T20.385 6H3.615q-.23 0-.423.192T3 6.616v11.769q0 .23.192.423t.423.192M8.5 16.884h7q.162 0 .273-.111t.112-.273t-.112-.273t-.273-.111h-7q-.161 0-.273.111t-.111.273t.111.273t.273.112M3 19V6zm3-9.23q.31 0 .54-.23T6.77 9t-.23-.54T6 8.23t-.54.23t-.23.54t.23.54t.54.23m4 0q.31 0 .54-.23t.23-.54t-.23-.54t-.54-.23t-.54.23t-.23.54t.23.54t.54.23m4 0q.31 0 .54-.23t.23-.54t-.23-.54t-.54-.23t-.54.23t-.23.54t.23.54t.54.23m4 0q.31 0 .54-.23t.23-.54t-.23-.54t-.54-.23t-.54.23t-.23.54t.23.54t.54.23m-12 4q.31 0 .54-.23t.23-.54t-.23-.54t-.54-.23t-.54.23t-.23.54t.23.54t.54.23m4 0q.31 0 .54-.23t.23-.54t-.23-.54t-.54-.23t-.54.23t-.23.54t.23.54t.54.23m4 0q.31 0 .54-.23t.23-.54t-.23-.54t-.54-.23t-.54.23t-.23.54t.23.54t.54.23m4 0q.31 0 .54-.23t.23-.54t-.23-.54t-.54-.23t-.54.23t-.23.54t.23.54t.54.23"/></svg>
