<svg t="1716659086478" class="icon" viewBox="0 0 1982 1024" version="1.1" xmlns="http://www.w3.org/2000/svg" p-id="5774" width="200" height="200"><path d="M961.034894 22.168511a24.924596 24.924596 0 0 1 14.161702 1.884595l539.070638 162.554554a21.667404 21.667404 0 0 1 11.362043 21.787234l115.581276 171.999319a20.697872 20.697872 0 0 1 2.843234 17.952681 20.131404 20.131404 0 0 1-14.161702 18.900425l-104.219234 34.03166v254.769021h109.164936a20.425532 20.425532 0 0 1 0 40.851064h-109.164936v61.581617a17.211915 17.211915 0 0 1-1.329021 6.307404l-0.555575 1.241872a20.937532 20.937532 0 0 1-11.383829 21.787234L973.344681 1000.32817a17.157447 17.157447 0 0 1-9.477447 1.884596h-5.675574a20.469106 20.469106 0 0 1-10.446979-1.884596L683.106043 920.510638H297.395745a20.425532 20.425532 0 0 1 0-40.851064h250.237276L408.706723 837.719149a20.131404 20.131404 0 0 1-11.645276-21.961532l0.261447-1.666723a7.124426 7.124426 0 0 1-0.936851-4.72783V452.183149l-104.219234-34.020766a20.131404 20.131404 0 0 1-14.161703-18.889532A20.20766 20.20766 0 0 1 280.804766 381.276596l115.581277-172.93617a20.937532 20.937532 0 0 1 11.362042-21.787235L946.818723 24.064a24.946383 24.946383 0 0 1 14.161703-1.884596z m-520.714894 438.773106v339.445106l500.289362 150.76766v-483.56766l-63.60783 106.180086a26.809191 26.809191 0 0 1-9.488341 8.540595 21.307915 21.307915 0 0 1-25.621787 9.477447z m1041.342638 0L1080.178383 592.046298a22.462638 22.462638 0 0 1-25.632681-9.499234 20.697872 20.697872 0 0 1-9.48834-8.540596l-63.60783-106.408851v483.56766l500.256681-151.04V460.952511zM154.50417 879.659574a20.425532 20.425532 0 0 1 0 40.851064H42.212766a20.425532 20.425532 0 0 1 0-40.851064h112.291404z m1796.814979-81.702127a20.425532 20.425532 0 1 1 0 40.851064h-387.943489a20.425532 20.425532 0 1 1 0-40.851064h387.943489zM425.940426 236.27166l-97.879149 148.75234 509.167659 167.837957 93.173107-158.295148a10.24 10.24 0 0 1-1.873703-4.771405L425.940426 236.27166z m1059.948936 0L983.31234 389.795404c-0.936851 1.906383-0.936851 2.854128-1.873702 4.771405l93.173107 158.295148 509.167659-167.827063-97.890042-148.763234zM961.034894 62.660085L481.203745 205.627915 961.034894 348.595745l479.831149-142.978724z" fill="#DDDDDD" p-id="5775"></path></svg>
