<svg t="1716671470878" class="icon" viewBox="0 0 1024 1024" version="1.1" xmlns="http://www.w3.org/2000/svg" p-id="2614" width="200" height="200"><path d="M416 704c-6.4 0-9.6 0-16-3.2C390.4 694.4 384 684.8 384 672v-320c0-12.8 6.4-22.4 16-28.8a29.06624 29.06624 0 0 1 32 0l256 166.4c9.6 6.4 16 16 16 28.8 0 9.6-6.4 22.4-16 25.6l-256 156.8c-3.2 3.2-9.6 3.2-16 3.2zM448 409.6v204.8l163.2-99.2L448 409.6zM512 960c-246.4 0-448-201.6-448-448S265.6 64 512 64s448 201.6 448 448-201.6 448-448 448zM512 128c-211.2 0-384 172.8-384 384s172.8 384 384 384 384-172.8 384-384-172.8-384-384-384z" fill="#272636" p-id="2615"></path></svg>
